<?xml version="1.0" encoding="UTF-8"?>
<svg xmlns="http://www.w3.org/2000/svg" xmlns:xlink="http://www.w3.org/1999/xlink" width="100pt" height="100pt" viewBox="0 0 100 100" version="1.1">
<g id="surface1">
<path style=" stroke:none;fill-rule:nonzero;fill:rgb(0%,0%,0%);fill-opacity:1;" d="M 96.429688 14.285156 L 3.570312 14.285156 C 1.597656 14.285156 0 15.882812 0 17.855469 L 0 82.144531 C 0 84.117188 1.597656 85.714844 3.570312 85.714844 L 96.429688 85.714844 C 98.402344 85.714844 100 84.117188 100 82.144531 L 100 17.855469 C 100 15.882812 98.402344 14.285156 96.429688 14.285156 Z M 90.570312 21.429688 L 50 52.636719 L 9.429688 21.429688 Z M 92.855469 78.570312 L 7.144531 78.570312 L 7.144531 28.683594 L 47.824219 59.976562 C 49.109375 60.960938 50.890625 60.960938 52.175781 59.976562 L 92.855469 28.683594 Z M 92.855469 78.570312 "/>
</g>
</svg>
