<?xml version="1.0" encoding="UTF-8"?>
<svg xmlns="http://www.w3.org/2000/svg" xmlns:xlink="http://www.w3.org/1999/xlink" width="100pt" height="100pt" viewBox="0 0 100 100" version="1.1">
<g id="surface1">
<path style=" stroke:none;fill-rule:nonzero;fill:rgb(0%,0%,0%);fill-opacity:1;" d="M 96.871094 43.746094 C 95.148438 43.746094 93.746094 45.148438 93.746094 46.871094 L 93.746094 82.257812 L 68.75 92.257812 L 68.75 59.371094 C 68.75 57.644531 67.347656 56.246094 65.625 56.246094 C 63.898438 56.246094 62.5 57.644531 62.5 59.371094 L 62.5 92.25 L 37.5 82.25 L 37.5 32.742188 L 51.980469 38.535156 C 53.5625 39.171875 55.398438 38.398438 56.042969 36.792969 C 56.6875 35.191406 55.90625 33.371094 54.300781 32.730469 L 35.59375 25.242188 C 35.59375 25.242188 35.59375 25.242188 35.589844 25.242188 L 35.539062 25.222656 C 34.792969 24.921875 33.964844 24.921875 33.21875 25.222656 L 33.164062 25.242188 C 33.164062 25.242188 33.164062 25.242188 33.15625 25.242188 L 1.964844 37.722656 C 0.785156 38.199219 0.00390625 39.339844 0.00390625 40.621094 L 0.00390625 96.867188 C 0.00390625 97.90625 0.523438 98.875 1.378906 99.457031 C 1.902344 99.8125 2.507812 99.992188 3.128906 99.992188 C 3.523438 99.992188 3.914062 99.917969 4.289062 99.769531 L 34.375 87.738281 L 64.40625 99.75 C 64.40625 99.75 64.40625 99.75 64.410156 99.75 L 64.46875 99.773438 C 65.210938 100.074219 66.042969 100.074219 66.785156 99.773438 L 66.84375 99.75 C 66.84375 99.75 66.84375 99.75 66.847656 99.75 L 98.039062 87.277344 C 99.214844 86.792969 99.996094 85.652344 99.996094 84.371094 L 99.996094 46.871094 C 99.996094 45.148438 98.597656 43.746094 96.871094 43.746094 Z M 31.25 82.25 L 6.253906 92.25 L 6.253906 42.734375 L 31.25 32.734375 Z M 31.25 82.25 "/>
<path style=" stroke:none;fill-rule:nonzero;fill:rgb(0%,0%,0%);fill-opacity:1;" d="M 78.125 12.5 C 72.953125 12.5 68.75 16.707031 68.75 21.875 C 68.75 27.042969 72.953125 31.25 78.125 31.25 C 83.292969 31.25 87.496094 27.042969 87.496094 21.875 C 87.496094 16.707031 83.292969 12.5 78.125 12.5 Z M 78.125 25 C 76.398438 25 75 23.597656 75 21.875 C 75 20.148438 76.398438 18.75 78.125 18.75 C 79.847656 18.75 81.25 20.148438 81.25 21.875 C 81.25 23.597656 79.847656 25 78.125 25 Z M 78.125 25 "/>
<path style=" stroke:none;fill-rule:nonzero;fill:rgb(0%,0%,0%);fill-opacity:1;" d="M 78.125 0 C 66.0625 0 56.25 9.8125 56.25 21.875 C 56.25 33.097656 73.796875 52.976562 75.796875 55.210938 C 76.390625 55.867188 77.234375 56.246094 78.125 56.246094 C 79.011719 56.246094 79.855469 55.867188 80.449219 55.210938 C 82.449219 52.976562 99.996094 33.097656 99.996094 21.875 C 99.996094 9.8125 90.183594 0 78.125 0 Z M 78.125 48.351562 C 71.296875 40.261719 62.5 27.835938 62.5 21.875 C 62.5 13.261719 69.511719 6.25 78.125 6.25 C 86.734375 6.25 93.746094 13.261719 93.746094 21.875 C 93.746094 27.828125 84.949219 40.261719 78.125 48.351562 Z M 78.125 48.351562 "/>
</g>
</svg>
