<?xml version="1.0" encoding="UTF-8"?>
<svg xmlns="http://www.w3.org/2000/svg" xmlns:xlink="http://www.w3.org/1999/xlink" width="100pt" height="100pt" viewBox="0 0 100 100" version="1.1">
<g id="surface1">
<path style=" stroke:none;fill-rule:nonzero;fill:rgb(0%,0%,0%);fill-opacity:1;" d="M 71.035156 0 L 28.964844 0 C 24.9375 0 21.6875 3.265625 21.6875 7.285156 L 21.6875 92.722656 C 21.6875 96.738281 24.9375 100 28.964844 100 L 71.035156 100 C 75.054688 100 78.3125 96.738281 78.3125 92.722656 L 78.3125 7.285156 C 78.3125 3.265625 75.054688 0 71.035156 0 Z M 39.617188 4.425781 L 60.390625 4.425781 C 60.914062 4.425781 61.339844 5.207031 61.339844 6.175781 C 61.339844 7.144531 60.914062 7.933594 60.390625 7.933594 L 39.617188 7.933594 C 39.089844 7.933594 38.671875 7.144531 38.671875 6.175781 C 38.671875 5.207031 39.089844 4.425781 39.617188 4.425781 Z M 50.003906 92.808594 C 47.441406 92.808594 45.359375 90.726562 45.359375 88.160156 C 45.359375 85.59375 47.441406 83.519531 50.003906 83.519531 C 52.558594 83.519531 54.640625 85.59375 54.640625 88.160156 C 54.640625 90.726562 52.558594 92.808594 50.003906 92.808594 Z M 72.863281 76.890625 L 27.140625 76.890625 L 27.140625 12.292969 L 72.863281 12.292969 Z M 72.863281 76.890625 "/>
</g>
</svg>
