<svg id="Capa_1" enable-background="new 0 0 512.666 512.666" height="512" viewBox="0 0 512.666 512.666" width="512" xmlns="http://www.w3.org/2000/svg"><g><path d="m60 90.331h129.619c8.284 0 15-6.716 15-15v-15h95.381v39.233h30v-54.233c0-8.284-6.716-15-15-15h-110.381v-15c0-8.284-6.716-15-15-15h-129.619c-8.284 0-15 6.716-15 15v60c0 8.285 6.716 15 15 15z"/><path d="m506.436 169.13c-3.912-2.819-8.939-3.585-13.514-2.062l-53.685 17.895v211.021l53.685 17.895c1.549.516 3.15.77 4.743.77 3.109 0 6.185-.967 8.771-2.831 3.912-2.819 6.23-7.347 6.23-12.169v-218.35c0-4.822-2.318-9.35-6.23-12.169z"/><path d="m138.109 315.527 34.874 4.543c3.421.446 6.584 2.058 8.956 4.564l24.175 25.542 15.098-31.762c1.482-3.116 3.991-5.626 7.107-7.108l31.762-15.098-25.541-24.173c-2.506-2.372-4.118-5.535-4.564-8.957l-4.544-34.873-30.883 16.821c-3.03 1.651-6.536 2.205-9.928 1.572l-34.571-6.454 6.455 34.57c.633 3.392.078 6.897-1.572 9.928z"/><path d="m223.812 382.823c-2.124 4.468-6.314 7.602-11.201 8.376-.783.124-1.568.185-2.348.185-4.087 0-8.038-1.671-10.893-4.689l-35.553-37.564-51.288-6.682c-4.906-.64-9.181-3.656-11.427-8.064s-2.174-9.64.192-13.985l24.74-45.422-9.493-50.841c-.908-4.863.64-9.861 4.138-13.359s8.495-5.046 13.36-4.139l50.842 9.492 45.42-24.738c4.346-2.366 9.578-2.438 13.985-.192 4.408 2.246 7.425 6.521 8.064 11.427l6.683 51.287 37.564 35.551c3.593 3.401 5.279 8.354 4.505 13.241s-3.907 9.077-8.376 11.201l-3.381 1.607 119.891 119.89v-290.84c0-8.284-6.716-15-15-15h-379.236c-8.284 0-15 6.716-15 15v301.052c0 8.284 6.716 15 15 15h292.17l-81.565-81.565z"/><path d="m246.016 336.111-6.742 14.183 162.041 162.041 21.214-21.212-161.939-161.939z"/></g></svg>